<svg width="37" height="28" viewBox="0 0 37 28" fill="none" xmlns="http://www.w3.org/2000/svg">
<path d="M0.616667 0.616665C0.851043 0.382581 1.16875 0.251099 1.5 0.251099C1.83125 0.251099 2.14896 0.382581 2.38333 0.616665L27.3833 25.6167C27.5061 25.7311 27.6047 25.8691 27.673 26.0224C27.7413 26.1758 27.778 26.3413 27.781 26.5091C27.7839 26.677 27.7531 26.8437 27.6902 26.9993C27.6273 27.155 27.5338 27.2964 27.4151 27.4151C27.2964 27.5338 27.155 27.6273 26.9993 27.6902C26.8437 27.7531 26.677 27.7839 26.5091 27.781C26.3413 27.778 26.1758 27.7413 26.0224 27.673C25.8691 27.6046 25.7311 27.5061 25.6167 27.3833L0.616667 2.38333C0.382583 2.14896 0.251101 1.83125 0.251101 1.5C0.251101 1.16875 0.382583 0.851041 0.616667 0.616665ZM27.75 20.7667L32.2333 25.25C33.8067 26.825 36.5 25.71 36.5 23.4833V4.51666C36.5 2.29 33.8067 1.175 32.2333 2.75L27.75 7.23333V20.7667ZM25.25 6.5V19.9467L6.80333 1.5H20.25C21.5761 1.5 22.8479 2.02678 23.7855 2.96446C24.7232 3.90215 25.25 5.17392 25.25 6.5ZM1.5 21.5V6.80333L21.1217 26.425C20.8339 26.4753 20.5422 26.5004 20.25 26.5H6.5C5.17392 26.5 3.90215 25.9732 2.96447 25.0355C2.02679 24.0979 1.5 22.8261 1.5 21.5Z" fill="white"/>
</svg>
