<svg width="26" height="6" viewBox="0 0 26 6" fill="none" xmlns="http://www.w3.org/2000/svg">
<path d="M23.5 4.5C24.3284 4.5 25 3.82843 25 3C25 2.17157 24.3284 1.5 23.5 1.5C22.6716 1.5 22 2.17157 22 3C22 3.82843 22.6716 4.5 23.5 4.5Z" fill="white"/>
<path d="M13 4.5C13.8284 4.5 14.5 3.82843 14.5 3C14.5 2.17157 13.8284 1.5 13 1.5C12.1716 1.5 11.5 2.17157 11.5 3C11.5 3.82843 12.1716 4.5 13 4.5Z" fill="white"/>
<path d="M2.5 4.5C3.32843 4.5 4 3.82843 4 3C4 2.17157 3.32843 1.5 2.5 1.5C1.67157 1.5 1 2.17157 1 3C1 3.82843 1.67157 4.5 2.5 4.5Z" fill="white"/>
<path d="M23.5 4.5C24.3284 4.5 25 3.82843 25 3C25 2.17157 24.3284 1.5 23.5 1.5C22.6716 1.5 22 2.17157 22 3C22 3.82843 22.6716 4.5 23.5 4.5Z" stroke="white" stroke-width="1.5" stroke-linecap="round" stroke-linejoin="round"/>
<path d="M13 4.5C13.8284 4.5 14.5 3.82843 14.5 3C14.5 2.17157 13.8284 1.5 13 1.5C12.1716 1.5 11.5 2.17157 11.5 3C11.5 3.82843 12.1716 4.5 13 4.5Z" stroke="white" stroke-width="1.5" stroke-linecap="round" stroke-linejoin="round"/>
<path d="M2.5 4.5C3.32843 4.5 4 3.82843 4 3C4 2.17157 3.32843 1.5 2.5 1.5C1.67157 1.5 1 2.17157 1 3C1 3.82843 1.67157 4.5 2.5 4.5Z" stroke="white" stroke-width="1.5" stroke-linecap="round" stroke-linejoin="round"/>
</svg>
