<svg width="36" height="36" viewBox="0 0 36 36" fill="none" xmlns="http://www.w3.org/2000/svg">
<path d="M26.75 19.25C26.7451 20.9461 26.2474 22.6042 25.3175 24.0225C24.3875 25.4409 23.0653 26.5585 21.5119 27.2392C19.9584 27.9199 18.2406 28.1345 16.5674 27.8568C14.8942 27.5791 13.3378 26.8211 12.0875 25.675L13.8625 23.9125C14.7629 24.7078 15.8734 25.2267 17.0611 25.4072C18.2488 25.5877 19.4634 25.422 20.5594 24.9301C21.6554 24.4381 22.5864 23.6407 23.2409 22.6334C23.8955 21.626 24.2458 20.4513 24.25 19.25V13.525L35.5 2.275L33.7375 0.5L0.5 33.7375L2.2625 35.5L10.3125 27.45C12.0769 29.1166 14.3373 30.1612 16.75 30.425V33H11.75V35.5H24.25V33H19.25V30.425C21.9992 30.1176 24.5388 28.8081 26.3835 26.7467C28.2282 24.6852 29.2487 22.0163 29.25 19.25V15.5H26.75V19.25ZM9.25 19.65V15.5H6.75V19.25C6.75162 20.1301 6.85651 21.0069 7.0625 21.8625L9.25 19.65ZM23.95 4.975C23.4984 3.56694 22.5622 2.36459 21.3078 1.58165C20.0534 0.798702 18.562 0.485881 17.0987 0.698779C15.6354 0.911676 14.295 1.6365 13.3157 2.74443C12.3364 3.85237 11.7816 5.27164 11.75 6.75V17.175L23.95 4.975Z" fill="white"/>
</svg>
