<svg width="23" height="30" viewBox="0 0 23 30" fill="none" xmlns="http://www.w3.org/2000/svg">
<path d="M11.5 0C8.32552 0 5.75 2.51953 5.75 5.625V15C5.75 18.1055 8.32552 20.625 11.5 20.625C14.6745 20.625 17.25 18.1055 17.25 15V5.625C17.25 2.51953 14.6745 0 11.5 0ZM3.83333 12.6562C3.83333 11.877 3.19244 11.25 2.39583 11.25C1.59921 11.25 0.958328 11.877 0.958328 12.6562V15C0.958328 20.2207 4.92343 24.5332 10.0625 25.2188V27.1875H7.1875C6.39088 27.1875 5.75 27.8145 5.75 28.5938C5.75 29.373 6.39088 30 7.1875 30H15.8125C16.6091 30 17.25 29.373 17.25 28.5938C17.25 27.8145 16.6091 27.1875 15.8125 27.1875H12.9375V25.2188C18.0766 24.5332 22.0417 20.2207 22.0417 15V12.6562C22.0417 11.877 21.4008 11.25 20.6042 11.25C19.8075 11.25 19.1667 11.877 19.1667 12.6562V15C19.1667 19.1426 15.7346 22.5 11.5 22.5C7.26536 22.5 3.83333 19.1426 3.83333 15V12.6562Z" fill="white"/>
</svg>
